<svg xmlns="http://www.w3.org/2000/svg" width="128" height="128"><circle cx="64" cy="64" r="64" fill="#73ba25"/><path d="M46.567 36.57a24 24 0 00-16.703 7.014c-8.717 9.67-6.7 25.043-.554 31.277 6.14 6.233 11.107 6.89 11.107 6.89l3.507-8.407c-1.817-.91-6.73-4.133-8.827-7.71-2.093-3.573-2.167-11.68 4.103-16.66 6.27-4.977 14.28-2.9 17.577 1.443 3.3 4.34 4.18 7.737 3.11 17.207l-.01.05a19.167 19.167 0 004.917 18.99c4.69 4.686 10.663 5.563 17.126 4.096l-.147-8.176c-3.823 1.52-7.393.62-10.3-2.29a10.31 10.31 0 0114.57-14.573c2.064 2.066 2.877 4.973 2.8 6.426l-.216 19.267h4.593l.033.033h8.087l2.66-7.183-7.84-.033c-.027-5.284-.033-11.4.063-13.784.164-3.97-.26-7.596-3.886-11.23-3.69-3.69-8.607-5.466-13.634-5.466a20.7 20.7 0 00-8.78 2.03c-.433-5.584-2.946-10.217-6.313-13.154-6.7-5.836-10.696-6.153-17.046-6.063zm1.21 31.837l-6.793 17.957 6.636 4.533 6.527-17.1z" fill="#fff"/></svg>