<svg xmlns="http://www.w3.org/2000/svg" width="128" height="128"><circle cx="64" cy="64" r="64" fill="#73ba25"/><path fill="#aad400" d="M35.787 65.891s-19.993-10.22-17.772-11.33c2.222-1.11 21.993 8.886 21.993 8.886S26.235 51.451 27.346 50.562c1.11-.888 16.438 10.441 16.438 10.441S31.788 46.341 32.677 45.675c.889-.666 14.44 13.33 14.44 13.33s-14.44-17.55-12.44-18.883c2-1.333 15.106 16.439 15.106 16.439s-12.44-18.217-10.22-19.772c2.222-1.555 15.329 18.883 15.329 18.883S44.229 34.568 45.784 33.9c1.555-.667 12.885 21.326 12.885 21.326s-9.108-24.88-6.665-25.102c2.444-.223 10.886 23.992 10.886 23.992s-3.999-26.658-1.778-26.658c2.222 0 7.331 27.102 7.331 27.102s-2.221-27.324.445-27.102c2.665.222 3.554 25.769 3.554 25.769s4.22-25.103 7.33-24.437c3.111.667-3.776 25.103-3.776 25.103s6.665-21.548 7.998-20.216c1.333 1.333-4.665 21.548-4.665 21.548s5.331-15.995 6.886-14.44c1.555 1.555-3.11 15.328-3.11 15.328s7.109-15.106 8.22-14.217c1.11.889-4.665 14.884-4.665 14.884s7.997-15.773 9.996-14.662c2 1.11-5.553 15.328-5.553 15.328s11.996-16.883 14.883-13.33c2.888 3.555-12.44 13.773-12.44 13.773s19.771-11.107 20.437-6.442c.667 4.665-18.66 8.441-18.66 8.441s15.994-1.332 16.216 1.333c.222 2.666-17.772 2.666-17.772 2.666s16.662-.444 15.328 4.443c-1.333 4.888-15.328-1.333-15.328-1.333s21.548 5.554 19.106 8.442c-2.444 2.888-19.994-5.776-19.994-5.776s17.994 13.107 15.107 14.218c-2.888 1.11-16.217-10.22-16.217-10.22s13.33 11.33 10.662 12.662C99.766 87.657 85.548 73.44 85.548 73.44s11.997 14.662 9.775 15.551c-2.221.889-12.885-13.33-12.885-13.33s13.551 16.884 11.107 17.773c-2.443.888-15.328-17.994-15.328-17.994S89.992 96.1 87.77 96.1c-2.222 0-12.885-18.216-12.885-18.216S83.77 97.21 80.883 97.21c-2.888 0-8.442-19.327-8.442-19.327s7.109 19.993 2 19.993c-5.11 0-5.999-18.66-5.999-18.66s2 15.772.445 16.216c-1.556.445-3.11-17.327-3.11-17.327s.666 16.883-2 16.661c-2.666-.222-3.332-17.106-3.332-17.106s.888 18.438-1.555 17.994c-2.444-.444-2.444-17.55-2.444-17.55s-3.11 22.659-5.554 22.437c-2.443-.222-.222-21.993-.222-21.993s-2.888 19.549-5.331 19.327c-2.444-.222 3.11-20.66 3.11-20.66s-8.664 23.992-12.218 21.548c-3.554-2.444 9.552-21.993 9.552-21.993S32.01 96.32 29.122 94.542C26.234 92.765 40.674 75.66 40.674 75.66S25.567 93.653 23.79 90.543c-1.778-3.11 13.106-14.883 13.106-14.883S17.35 88.322 15.571 84.324c-1.777-4 19.327-10.22 18.882-11.552-.444-1.333-21.103 4.887-20.437.666.666-4.22 20.437-5.11 20.437-5.11s-17.993-.443-16.216-3.776c1.777-3.332 17.993 1.111 17.55 1.333z"/><path d="M46.748 49.754a1.777 1.555 43.63 01.213 2.352 1.777 1.555 43.63 01-2.36-.1 1.777 1.555 43.63 01-.212-2.352 1.777 1.555 43.63 012.359.1zm11.22.047a1.666 1.666 0 01-1.666 1.666 1.666 1.666 0 01-1.666-1.666 1.666 1.666 0 011.666-1.666 1.666 1.666 0 011.666 1.666zm4.068-3.223a2.444 1.333 72.514 01-.537 2.732 2.444 1.333 72.514 01-2.005-1.93 2.444 1.333 72.514 01.537-2.732 2.444 1.333 72.514 012.005 1.93zm4.076-.917a.889 1.444 0 01-.888 1.444.889 1.444 0 01-.889-1.444.889 1.444 0 01.889-1.444.889 1.444 0 01.888 1.444zm5.573-.252a.889 1.444 0 01-.889 1.444.889 1.444 0 01-.888-1.444.889 1.444 0 01.888-1.444.889 1.444 0 01.89 1.444zm1.055 4.307a1.333 1 82.51 01-1.165-1.19 1.333 1 82.51 01.818-1.453 1.333 1 82.51 011.165 1.192 1.333 1 82.51 01-.818 1.451zm5.143-3.054a.555.889 0 01-.556.889.555.889 0 01-.555-.889.555.889 0 01.555-.888.555.889 0 01.556.888zm2.057-5.679a1.444 1.888 19.862 01-2 1.285A1.444 1.888 19.862 0177.223 40a1.444 1.888 19.862 012-1.285 1.444 1.888 19.862 01.716 2.267zm.809 5.779a.889 1.666 14.12 01-1.269 1.4.889 1.666 14.12 01-.455-1.833.889 1.666 14.12 011.268-1.4.889 1.666 14.12 01.456 1.833zm4.456.384a.555 1.444 16.115 01-.934 1.233.555 1.444 16.115 01-.133-1.541.555 1.444 16.115 01.935-1.233.555 1.444 16.115 01.132 1.541zm2.455 6.403a.889 1.333 0 01-.888 1.333.889 1.333 0 01-.889-1.333.889 1.333 0 01.889-1.333.889 1.333 0 01.889 1.333zm1.778-4.22a1.222 1.11 0 01-1.221 1.11 1.222 1.11 0 01-1.222-1.11 1.222 1.11 0 011.222-1.11 1.222 1.11 0 011.221 1.11zm6.06-.85a1.222 2.11 29.36 01-2.1 1.24 1.222 2.11 29.36 01-.03-2.438 1.222 2.11 29.36 012.1-1.24 1.222 2.11 29.36 01.03 2.438zm6.573.055a1.888 2.555 64.074 01-1.472 2.816 1.888 2.555 64.074 01-3.123-.582 1.888 2.555 64.074 011.472-2.815 1.888 2.555 64.074 013.123.581zm.508 6.465a1.333 2.444 76.514 01-2.066 1.866 1.333 2.444 76.514 01-2.687-.726 1.333 2.444 76.514 012.065-1.867 1.333 2.444 76.514 012.688.727zm2.666 4.747a2.11 1.333 0 01-2.11 1.333 2.11 1.333 0 01-2.11-1.333 2.11 1.333 0 012.11-1.333 2.11 1.333 0 012.11 1.333zm-.355 6.467a2.333 1.444 18.13 01-2.666.647 2.333 1.444 18.13 01-1.767-2.098 2.333 1.444 18.13 012.666-.647 2.333 1.444 18.13 011.768 2.098zm-5.177 2.36a1.555 1 26.165 01-1.837.211 1.555 1 26.165 01-.955-1.583 1.555 1 26.165 011.837-.211 1.555 1 26.165 01.955 1.583zm4.162 7.188a2.222 2 0 01-2.221 2 2.222 2 0 01-2.221-2 2.222 2 0 012.221-2 2.222 2 0 012.221 2zm-10.633.537a2.888 1.444 45.49 01.994 3.071 2.888 1.444 45.49 01-3.054-1.047 2.888 1.444 45.49 01-.995-3.071 2.888 1.444 45.49 013.055 1.047z" fill="#222b00"/><path d="M90.103 78.09a1.666 1.444 0 01-1.667 1.445 1.666 1.444 0 01-1.666-1.444 1.666 1.444 0 011.666-1.444 1.666 1.444 0 011.667 1.444zm-1.553 3.893a1.222 1.11 0 01-1.222 1.111 1.222 1.11 0 01-1.222-1.11 1.222 1.11 0 011.222-1.111 1.222 1.11 0 011.222 1.11zm-5.322-1.8a2.777 1.888 62.657 01-.402 3.333 2.777 1.888 62.657 01-2.953-1.599 2.777 1.888 62.657 01.402-3.334 2.777 1.888 62.657 012.953 1.6zm-6.703 5.394a2.555 1.333 77.673 01-.757 2.78 2.555 1.333 77.673 01-1.847-2.211 2.555 1.333 77.673 01.756-2.78 2.555 1.333 77.673 011.848 2.21zM70.996 83.2a1 2.999 0 01-1 2.998 1 2.999 0 01-1-2.999 1 2.999 0 011-2.999 1 2.999 0 011 3zm-4.444 1.665a1.777 2.444 0 01-1.778 2.443 1.777 2.444 0 01-1.777-2.443 1.777 2.444 0 011.777-2.444 1.777 2.444 0 011.778 2.444zm-.544-3.866a1.11 1.222 0 01-1.11 1.221A1.11 1.222 0 0163.786 81a1.11 1.222 0 011.11-1.222A1.11 1.222 0 0166.007 81zM61.536 79.3a1.444 1.555 0 01-1.444 1.555 1.444 1.555 0 01-1.444-1.555 1.444 1.555 0 011.444-1.555 1.444 1.555 0 011.444 1.555zm-.056 7.083a1.222 1.777 0 01-1.221 1.777 1.222 1.777 0 01-1.222-1.777 1.222 1.777 0 011.222-1.777 1.222 1.777 0 011.222 1.777zm-6.035-3.923a1.222 2.11 0 01-1.221 2.11 1.222 2.11 0 01-1.222-2.11 1.222 2.11 0 011.222-2.11 1.222 2.11 0 011.221 2.11zm-4.849-.191a1.11 2 14.112 01.59 2.21 1.11 2 14.112 01-1.565 1.668 1.11 2 14.112 01-.59-2.21 1.11 2 14.112 011.565-1.668zm-3.324-4.726a1.777 2.222 18.351 01.987 2.668 1.777 2.222 18.351 01-2.386 1.549 1.777 2.222 18.351 01-.988-2.668 1.777 2.222 18.351 012.387-1.55zm-4.786-.504a1.11 2.666 39.547 01-.841 2.763 1.11 2.666 39.547 01-2.554 1.348 1.11 2.666 39.547 01.84-2.763 1.11 2.666 39.547 012.555-1.348zm-6.811 3.279a1.333 1.444 0 01-1.333 1.444 1.333 1.444 0 01-1.333-1.444 1.333 1.444 0 011.333-1.444 1.333 1.444 0 011.333 1.444zm-4.932-11.195a1.666 2.444 87.678 01-2.374 1.764 1.666 2.444 87.678 01-2.509-1.566 1.666 2.444 87.678 012.374-1.764 1.666 2.444 87.678 012.51 1.566zm6.159 4.217a.966.902 0 01-.966.902.966.902 0 01-.966-.902.966.902 0 01.966-.902.966.902 0 01.966.902zm-3.894-8.617a2 1.191 0 01-1.999 1.19 2 1.191 0 01-2-1.19 2 1.191 0 012-1.191 2 1.191 0 012 1.19zm6.117-1.848a2.11 1.555 30.684 01-2.609.26 2.11 1.555 30.684 01-1.021-2.414 2.11 1.555 30.684 012.608-.26 2.11 1.555 30.684 011.022 2.414zm-6.327-4.881a1.666 1.444 32.618 01.625 2.114 1.666 1.444 32.618 01-2.182.318 1.666 1.444 32.618 01-.625-2.114 1.666 1.444 32.618 012.182-.318zm7.368-.548a1.555 1.333 27.843 01-1.997.452 1.555 1.333 27.843 01-.753-1.905 1.555 1.333 27.843 011.998-.452 1.555 1.333 27.843 01.752 1.905zM51.598 50.2a2 1.777 62.93 012.492.972 2 1.777 62.93 01-.673 2.59 2 1.777 62.93 01-2.492-.972 2 1.777 62.93 01.673-2.59zm-5.864 7.106a2.444 2.11 43.796 01.303 3.214 2.444 2.11 43.796 01-3.225-.168 2.444 2.11 43.796 01-.303-3.214 2.444 2.11 43.796 013.224.168zm-.467-1.526a.603.522 59.212 01-.72.19.603.522 59.212 01-.272-.802.603.522 59.212 01.72-.19.603.522 59.212 01.272.802z" fill="#222b00"/><path fill="#cf0" d="M62.598 57.574c2.85-.475 2.137-7.838 2.137-7.838s.475 7.126 3.326 7.363c2.85.238 2.85-5.225 2.85-5.225s-1.188 5.225 2.137 4.988c3.326-.238 5.701-5.226 5.701-5.226s-2.85 3.326.238 4.988c3.087 1.663 5.7-.95 5.7-.95s-3.325 4.038.238 4.75c3.563.713 8.313-3.8 8.313-3.8s-1.662 1.663-1.662 4.276c0 2.612 5.463.712 5.463.712s-9.501-.95-9.501 1.425c0 2.376 7.125 4.276 7.125 4.276s-3.563-1.9-4.988.712c-1.425 2.613 4.038 4.988 4.038 4.988s-5.7-5.7-8.076-4.275c-2.375 1.425.476 7.6.476 7.6s-2.85-5.937-5.463-4.987c-2.613.95.475 5.225.475 5.225s-2.138-2.85-4.276-2.137c-2.138.712.95 3.325.95 3.325s-1.425-6.888-4.038-6.176c-2.612.713-.712 9.501-.712 9.501s-.95-5.463-2.85-4.988c-1.9.475-1.9 4.276-1.9 4.276s-1.188-5.938-2.85-5.463c-1.663.475-1.663 3.8-1.663 3.8s.712-5.463-1.9-4.988c-2.613.475-3.088 3.8-3.088 3.8s1.662-6.175-.713-5.7c-2.375.475-3.563 7.6-3.563 7.6s1.425-4.987-.712-4.75c-2.138.238-4.276 4.276-4.276 4.276s.95-3.563-.95-4.513c-1.9-.95-4.038 1.9-4.038 1.9s1.9-2.138.238-3.088c-1.663-.95-4.988 1.9-4.988 1.9s1.663-2.613.238-4.038c-1.426-1.425-4.988-.475-4.988-.475s4.988-.712 5.225-2.612c.237-1.9-3.8-2.613-3.8-2.613s4.75 1.425 6.175.237c1.425-1.187-.712-4.037-.712-4.037s2.137 3.8 4.513 2.612C48.822 63.038 49.059 59 49.059 59s2.138 4.038 4.038 2.85c1.9-1.188-.95-5.225-.95-5.225s3.326 4.987 4.988 4.275c1.663-.713-.237-5.226-.237-5.226s1.9 4.75 3.8 4.75-.713-5.462-.713-5.462l2.613 2.613z"/><path fill="#f6ffd5" d="M63.027 60.425c1.814-.302 1.36-4.988 1.36-4.988s.302 4.535 2.116 4.686c1.814.151 1.814-3.326 1.814-3.326s-.756 3.326 1.36 3.175c2.116-.152 3.628-3.326 3.628-3.326s-1.814 2.116.151 3.174c1.965 1.058 3.628-.604 3.628-.604s-2.116 2.57.151 3.023c2.267.453 5.29-2.419 5.29-2.419s-1.058 1.058-1.058 2.721 3.477.453 3.477.453-6.046-.604-6.046.907c0 1.512 4.534 2.721 4.534 2.721s-2.267-1.21-3.174.453 2.57 3.175 2.57 3.175-3.628-3.628-5.14-2.721c-1.51.907.303 4.837.303 4.837s-1.814-3.779-3.477-3.174c-1.662.604.303 3.325.303 3.325s-1.36-1.814-2.721-1.36c-1.36.453.605 2.116.605 2.116s-.907-4.384-2.57-3.93c-1.663.453-.453 6.046-.453 6.046s-.605-3.477-1.814-3.174c-1.21.302-1.21 2.72-1.21 2.72s-.755-3.778-1.813-3.476c-1.058.302-1.058 2.418-1.058 2.418s.453-3.476-1.21-3.174c-1.662.302-1.964 2.418-1.964 2.418s1.058-3.93-.454-3.627c-1.511.302-2.267 4.837-2.267 4.837s.907-3.174-.454-3.023c-1.36.151-2.72 2.72-2.72 2.72s.604-2.267-.605-2.871c-1.209-.605-2.57 1.209-2.57 1.209s1.21-1.36.152-1.965c-1.059-.605-3.175 1.209-3.175 1.209s1.058-1.663.152-2.57c-.907-.906-3.175-.302-3.175-.302s3.175-.453 3.326-1.663c.151-1.209-2.419-1.662-2.419-1.662s3.023.907 3.93.151-.453-2.57-.453-2.57 1.36 2.419 2.872 1.663c1.511-.756 1.662-3.325 1.662-3.325s1.36 2.57 2.57 1.814c1.21-.756-.605-3.326-.605-3.326s2.116 3.175 3.174 2.721c1.059-.453-.15-3.325-.15-3.325s1.208 3.023 2.418 3.023c1.209 0-.454-3.477-.454-3.477z"/></svg>