<svg xmlns="http://www.w3.org/2000/svg" xmlns:xlink="http://www.w3.org/1999/xlink" height="128" width="128"><defs><linearGradient id="c"><stop offset="0" stop-color="#e4bc98"/><stop offset="1" stop-color="#f6daaa" stop-opacity="0"/></linearGradient><linearGradient id="b"><stop offset="0" stop-color="#363433"/><stop offset="1" stop-color="#363433" stop-opacity="0"/></linearGradient><linearGradient id="d"><stop offset="0" stop-color="#fff"/><stop offset="1" stop-color="#fff" stop-opacity="0"/></linearGradient><linearGradient id="a"><stop offset="0" stop-color="#f6daaa"/><stop offset="1" stop-color="#e4bc98"/></linearGradient><linearGradient gradientTransform="translate(8.55 -9.822) scale(1.14098)" x1="41.976" y1="88.198" x2="34.958" y2="96.024" id="f" xlink:href="#a" gradientUnits="userSpaceOnUse"/><linearGradient gradientTransform="translate(8.55 -9.822) scale(1.14098)" x1="53.223" y1="51.558" x2="50.293" y2="51.232" id="h" xlink:href="#b" gradientUnits="userSpaceOnUse"/><radialGradient cx="31.249" cy="66.879" r="9.79" fx="31.249" fy="66.879" id="i" xlink:href="#c" gradientUnits="userSpaceOnUse" gradientTransform="matrix(.66923 .33492 -1.36234 2.72223 115.367 -137.867)"/><radialGradient cx="79.979" cy="69.121" r="5.297" fx="79.979" fy="69.121" id="g" xlink:href="#d" gradientUnits="userSpaceOnUse" gradientTransform="translate(-43.91 -56.425) scale(1.79885)"/><mask id="e" maskUnits="userSpaceOnUse"><circle cx="64" cy="64" r="64" fill="#fff"/></mask></defs><circle fill="#a181b8" r="64" cy="64" cx="64"/><g mask="url(#e)"><path d="M48.414 98.286c-25.547 0-27.762 25.011-27.954 29.95H74.3c.105-5.735-.913-29.95-25.886-29.95z" style="marker:none" color="#000" overflow="visible" fill="#363433"/><path d="M93.837 56.503c.234 13.84-16.936-6.02-14.73-14.353 1.453-1.426 2.918-2.665 5.429-2.827 2.066.194 7.603 9.26 9.301 17.18z" style="marker:none" color="#000" overflow="visible" fill="#f6daaa" stroke="#363433" stroke-width="1.483" stroke-linecap="square"/><path d="M57.373 43.916c9.589-24.534 5.307-47.832-3.338-50.122" style="marker:none" color="#000" overflow="visible" fill="none" stroke="#6d6e6e" stroke-width=".57" stroke-linecap="square"/><path d="M56.784 43.472C43.071 45.188 40.7 57.141 41.864 61.49c3.857 13.698 5.666 23.005 5.79 38.635 2.337 2.475 8.85 5.27 12.87 1.251-1.233-9.304 6.525-11.967 18.28-11.104 13.985 1.026 32.03-2.285 32.03-15.562-1.101-8.367-10.761-14.572-25.76-23.191" style="marker:none" color="#000" overflow="visible" fill="url(#f)" stroke="#363433" stroke-width="1.483" stroke-linecap="square"/><path d="M60.471 41.673c-.512-11.356 25.254-32.28 34.187-21.687" style="marker:none" color="#000" overflow="visible" fill="none" stroke="#6d6e6e" stroke-width=".57" stroke-linecap="square"/><path d="M51.005 50.007C65.19 32.537 78.137 30.35 87.72 59.298" style="marker:none" color="#000" overflow="visible" fill="#f6daaa"/><path d="M96.62 58.993a9.508 9.508 0 00-6.168 8.914c0 5.262 4.222 9.52 9.484 9.52 4.317 0 7.958-2.875 9.128-6.81-1.27-2.427-3.34-4.749-6.168-7.095-1.797-1.492-3.913-2.984-6.276-4.529z" fill="url(#g)"/><path d="M57.756 87.09c-.572 0-1.232 1.047-.214.963 5.137-.428 10.092-.322 14.369 2.674l.392-.071.535-.678.115-.18c-4.68-2.982-9.845-3.248-15.197-2.708z" style="line-height:normal;-inkscape-font-specification:ALPHA-Demo;text-indent:0;text-align:start;text-decoration-line:none;text-transform:none;marker:none" color="#000" font-weight="400" font-family="ALPHA-Demo" overflow="visible" fill="#363433"/><path d="M63.89 65.763c-1.038-1.037-6.961-19.484 3.205-22.381 6.514-1.856 14.315 12.46 14.315 18.429 0 5.968-12.181 8.827-17.52 3.952z" style="marker:none" color="#000" overflow="visible" fill="#fff" stroke="url(#h)" stroke-width=".856" stroke-linecap="square"/><path d="M73.685 51.9a4.58 6.512 9.5 11-9.005-1.69 4.58 6.512 9.5 119.005 1.69z" fill="#343231"/><path d="M70.043 49.477a1.386 2.322 25.79 11-2.496-1.206 1.386 2.322 25.79 112.496 1.206zm-1.766 5.294a.829.624 14.605 101.416-.478.829.624 14.605 10-1.416.478z" fill="#fff"/><path d="M57.47 44.125l-.356.035c-.633.542-.668.338-.606.072-.122.017-.238.052-.357.071-.122.14-.264.29-.463.535l-.357.428-.357.142.357-.427c.286-.352.389-.508.428-.607-.096.017-.19.018-.285.036-.355.238-.654.494-.25.071-5.633 1.13-8.957 4.118-10.84 7.381-2.05 3.555-2.315 7.515-1.818 9.413.002.009-.002.028 0 .036 3.822 13.58 5.66 22.985 5.812 38.401 1.068 1.061 3.066 2.291 5.242 2.746 1.435.3 2.878.275 4.207-.25.793-.81 1.346-2.012 1.925-3.352.217-3.465 1.903-6.005 4.707-7.487.013-.007.022-.029.036-.036z" style="marker:none" color="#000" overflow="visible" fill="url(#i)"/><path d="M55.369-6.465a1.785 1.785 0 11-3.571 0 1.785 1.785 0 113.57 0zM96.463 20.05a1.785 1.785 0 11-3.57 0 1.785 1.785 0 113.57 0z" fill="#413f3e"/><path d="M47.202 98.892c-13.208-.358-21.73 12.99-20.777 13.47 1.582.35 3.276-3.407 9.918-9.005 3.012-2.538 10.98-3.396 10.862-4.287-.002-.06 0-.118-.003-.178z" fill="#fff"/><path d="M47.309 102.672c-14.04 6.162-18.268 15.973-18.399 25.565h43.892c-.003-7.443-.434-17.295-11.196-24.995-2.548 2.243-5.842 2.607-8.593 2.032-2.221-.463-4.198-1.433-5.704-2.602z" style="marker:none" color="#000" overflow="visible" fill="#e67e71"/><path d="M87.724 59.314c-1.855-7.365-4.484-12.802-7.327-16.473-2.843-3.67-5.956-5.7-9.235-6.168-3.278-.47-6.658.594-10.09 2.852-3.433 2.259-7.77 7.175-10.073 10.483 3.808-3.786 7.395-7.36 10.679-9.52 3.283-2.16 6.413-3.093 9.342-2.674 2.928.419 5.728 2.19 8.45 5.705 2.722 3.514 5.693 8.668 8.254 15.795z" style="line-height:normal;-inkscape-font-specification:ALPHA-Demo;text-indent:0;text-align:start;text-decoration-line:none;text-transform:none;marker:none" color="#000" font-weight="400" font-family="ALPHA-Demo" overflow="visible" fill="#363433"/></g></svg>