<svg xmlns="http://www.w3.org/2000/svg" width="128" height="128"><circle cx="64" cy="64" r="64" fill="#35b9ab"/><path fill="#173f4f" d="M35.587 25.165l3.947 13.2 6.324 7.55a17.844 17.844 0 00-6.07 2.276c-2.236 1.965-3.476 4.431-4.454 7.027l-7.111 5.529c-.378-.325-.658-.058-.964.066-1.085.64-2.272 1.191-2.907 2.21-1.156 2.99.8 4.595 2.044 6.448.796.862 2.578 1.956 4.285 2.071l14.084-6.889 7.689-1.43c-1.347 9.364-1.222 19.555-1.489 29.532l-4.067 6.831-.973.778 24.418-1.884 9.502 4.355 2.969-1.298 6.07-.328-1.288-1.69 4.577-.195-.248 2.405 4.066-2.338h1.81l1.097.973 2-1.427 3.102-.133c-1.787-10.089-2.92-20.289-3.942-30.51-.2-2.636-.41-5.254-1.098-7.027a25.218 25.218 0 00-6.262-8.391c-3.147-2.6-6.396-4.96-10.013-6.378-3.21-1.213-6.418-.369-9.627.267a53.466 53.466 0 00-10.4 3.573c.667-1.56 1.796-3.053 3.253-3.822 1.992-1.04 3.698-1.511 5.792-2.094 1.875-.702 3.062-1.848 4.328-2.933 3.49-4.195 6.49-8.529 9.427-12.88-5.298 1.218-10.595 3.28-15.893 5.271-3.356 1.254-6.365 2.854-8.911 5.334l-5.422 5.4c-1.223.937-1.836-.027-2.525-.778l-4-5.991zM63.116 77.31l4.427 1.511 3.95 7.236-3.813 7.066-3.653 2.089s-2.582-16.32-2.444-16.39c.133-.068 1.533-1.512 1.533-1.512zm24.622 3.635l3.302 6.458.711 5.916-4.635 5.59s-3.2-3.421-3.107-3.608c.093-.196 2.489-14.067 2.489-14.067z"/><path fill="#fff" d="M38.538 30.311l3.196 7.503 7.813 8.924c-2.533.4-4.786 1.08-6.91 1.893-1.2.578-2.347 1.2-2.987 2.467l-1.947 3.449c-.627 1.266-1.956 2.28-3.258 3.306l-5.333 4.165c1.062.515 2.013 1.19 2.889 1.99-.943-.52-1.858-1.066-2.956-1.355-.764-.12-1.52-.11-2.218.445-.626.52-.555 1.4-.426 2.222.24 1.271 1.302 2.4 2.51 3.253 1.125.503 2.16.245 3.156-.342.863-.8 1.214-2.204 1.107-4.124.622-.116.484 3.586.596 3.164.057-.227 9.142-4.769 11.546-5.333 2.453-.631 6.28-.836 9.049-1.698 1.72-.551 2.978-1.858 4.044-3.498l-.857 1.822a4.902 4.902 0 01-2.818 2.134l-1.542 16.409-.031 15.866-2.685 4 1.827-.062 1.946-2.573-1.43 3.08s9.364-.627 9.364-.56c0 .066-2.89-18.978-2.89-18.978s3.13-3.498 3.196-3.547c.067-.053 11.445 3.84 11.445 3.84l-1.751-2.066-1.44-.796 1.746.578s4.058 4.915 4.076 4.986c.018.067.724-.884.724-.884L73.04 97.235l5.645 1.925-.178-2.636 1.351 3.271 2.076.138-1.405-3.409 2.445 2.969 1.342-.267-2.418-3.48 2.822-16.8-3.253-2.568L78.947 73l2.387 2.431-2.587-3.684-.205-4.867.907 4.191.978-3.444-.507 4.022 1.88 4.124 3.76 2.8-.07.645 2.959-1.085 1.911-4.32.165-2.675.275 2.71s-1.644 3.983-1.644 4.12c0 .134 2.146-2.03 2.146-2.03l-2.355 2.773 3.764 6.791 1.276 7.404.938-.67-.2.266-3.023 3.947 1.983-.432.768-1.217-.337 1.484.706.036-.164 1.622 1.475-1.32 1.103.342.342-1.969v2l1.035-.204.503 1.689.737-2.13 1.445-.066c-1.378-10.453-3.2-20.906-3.689-31.36-.053-1.99-1.724-5.51-3.524-7.813-2.103-2.422-6.396-7.6-12.49-9.053-3.324-.396-6.71.142-10.4 1.347-3.261.955-6.63 2.12-10.292 3.875.862 1.413 2.004 2.8 3.95 4.445.61.595 1.707.76 2.787.675-.746.267-1.515.489-2.32.067-1.31-.89-2.39-2-3.422-3.174a12.271 12.271 0 01-1.578-2.537c-.622-1.414.112-3.21 1.312-5.138 1.088-1.338 2.288-2.644 4.728-3.582 2.196-.876 4.4-1.751 6.485-2.907 2.355-1.529 6.115-6.4 8.115-9.804-5.449 2-10.893 3.6-16.31 6.79-2.027 1.392-4.014 3.547-6.04 5.779-.863.977-1.796 1.893-3.023 2.542-1.684.902-2.844.044-3.622-.645a25.88 25.88 0 01-3.187-4.253c-1.2-1.644-2.457-3.293-4.297-4.938-2.116-1.964-4.023-4.23-5.943-6.289zm34.471 5.392l-4.8 5.826 3.258-1.129-6.556 3.214zM50.241 47.867c.422-.01.844 0 1.253.044-2.653.205-3.867.662-6.169 1.845.844-.645 1.32-1.125 2.84-1.645a10.685 10.685 0 012.076-.244zm.737 3.662c1.311.022 2.2.6 2.2.6-2.906-.782-4.502-.133-5.746 1.769-.147-.12.826-1.773 2.115-2.165a4.614 4.614 0 011.431-.204zm-.222.978a3.378 3.378 0 01.822.066c.543.192.791.596 1.058.978-.564-.498-1.147-.889-1.853-.706.8.088 1.098.59 1.213 1.248.098.885-.662 1.405-1.169 1.48-.506.076-1.155-.053-1.529-.6-.106-.222-.39-1.04.063-1.622a4.444 4.444 0 00-1.343.854c.343-.498.76-.89 1.391-1.307a2.96 2.96 0 011.347-.396zM29.307 64.049c.68.804 1.343 1.578 1.667 2.644.044.987-.391.965-.818.96-.355-.004-1.03-.409-.813-.737a2.604 2.604 0 00.258-1.378zm-2.488.244c.533.56 1.057.934 1.155 1.716.04.187.076.649-.293.578-1.076-1.018-.427-.907-.858-2.294z"/></svg>
