<svg xmlns="http://www.w3.org/2000/svg" width="128" height="128"><circle cx="64" cy="64" r="64" fill="#35b9ab"/><path d="M63.891 36.376c-2.707.03-5.39.867-7.685 2.326-6.25 3.973-9.365 11.716-9.434 19.318 0 .089 0 .178.003.267h-.036c.01 8.454 2.15 17.033 6.665 24.08 3.119 4.865 7.453 9.05 12.782 11.372 5.93 2.584 12.898 2.515 18.823-.236 6.656-3.09 11.742-9.094 14.874-15.949 5.358-11.725 5.48-25.742.4-37.646-3.817 1.527-7.211-.903-7.211-.903s.008 3.74-3.615 5.616c3.717 8.71 3.627 19.056-.098 27.543-1.793 4.083-4.532 7.885-8.33 10.035-3.058 1.732-6.798 2.08-10.172.609-4.473-1.949-7.642-6.213-9.635-10.848-1.78-4.138-2.626-8.67-2.69-13.167.009-.09.017-.179.022-.269l.005-.23c.004-1.764.272-3.551.879-5.216.699-1.917 1.814-3.836 3.582-4.585a2.39 2.39 0 01.98-.182 2.39 2.39 0 01.98.182c1.768.749 2.883 2.668 3.582 4.585.607 1.665.875 3.452.879 5.215l.005.231c.005.09.013.18.023.269-.047 3.237-.505 6.489-1.418 9.601-.125.426-.263.849-.405 1.27-.06.177-.116.356-.18.532a30.655 30.655 0 01-.688 1.764 28.037 28.037 0 01-1.367 2.77c.221.344.45.677.684.998a18.14 18.14 0 001.473 1.78c1.286 1.362 2.714 2.408 4.257 3.08a8.661 8.661 0 003.423.721l.002-.003c.31-.521.603-1.052.889-1.587.085-.16.167-.322.25-.484.21-.406.412-.816.607-1.23.07-.148.142-.294.21-.443.25-.546.49-1.096.716-1.653.048-.117.09-.235.136-.352.183-.465.36-.932.527-1.403.027-.076.058-.15.085-.226.01-.028.014-.054.022-.082 1.723-4.967 2.563-10.287 2.569-15.56h-.036c.003-.088.004-.177.003-.266-.069-7.602-3.184-15.345-9.433-19.318-2.296-1.46-4.979-2.296-7.686-2.326h-.218zm-28.963 2.629s-3.394 2.43-7.21.903c-5.082 11.904-4.96 25.921.399 37.646 3.132 6.855 8.218 12.86 14.874 15.949a22.52 22.52 0 004.496 1.536 23.128 23.128 0 004.687.58 23.087 23.087 0 007.71-1.151c.133-.044.27-.082.402-.129l.003-.001c.372-.13.74-.27 1.105-.42-3.917-2.504-7.325-6.023-10.03-10.244l-.017-.026h-.003a11.531 11.531 0 01-1.138-.197h-.001a11.667 11.667 0 01-2.196-.728c-.354-.157-.7-.332-1.038-.524-3.798-2.15-6.537-5.952-8.33-10.035-3.725-8.487-3.815-18.834-.098-27.543-3.623-1.876-3.615-5.616-3.615-5.616z" fill="#fff"/></svg>