<svg xmlns="http://www.w3.org/2000/svg" height="128" width="128"><defs><linearGradient id="l"><stop stop-color="#ca7200" offset="0"/><stop stop-color="#8d3c00" offset="1"/></linearGradient><linearGradient id="k"><stop stop-color="#d7a223" offset="0"/><stop stop-color="#98441f" offset="1"/></linearGradient><linearGradient id="i"><stop stop-color="#e19401" offset="0"/><stop stop-color="#e8c200" offset="1"/></linearGradient><linearGradient id="g"><stop stop-color="#dec532" offset="0"/><stop stop-color="#fdd439" offset=".537"/><stop stop-color="#fdc625" offset=".834"/><stop stop-color="#feb912" offset="1"/></linearGradient><linearGradient id="h"><stop stop-color="#b79805" offset="0"/><stop stop-color="#d7a602" offset=".147"/><stop stop-color="#f8b500" offset=".501"/><stop stop-color="#e4a100" offset="1"/></linearGradient><linearGradient id="e"><stop stop-color="#e5b201" offset="0"/><stop stop-color="#e1a401" offset=".776"/><stop stop-color="#d18f01" offset="1"/></linearGradient><linearGradient id="d"><stop stop-color="#ebac00" offset="0"/><stop stop-color="#ce9700" offset="1"/></linearGradient><linearGradient id="c"><stop stop-color="#e5b201" offset="0"/><stop stop-color="#e1a401" offset=".64"/><stop stop-color="#d18f01" offset="1"/></linearGradient><linearGradient id="b"><stop stop-color="#f1b102" offset="0"/><stop stop-color="#e5ce14" offset=".428"/><stop stop-color="#ded221" offset="1"/></linearGradient><linearGradient id="a"><stop stop-color="#fbb900" offset="0"/><stop stop-color="#e6d116" offset=".414"/><stop stop-color="#cec61e" offset="1"/></linearGradient><linearGradient id="f"><stop stop-color="#fcbc15" offset="0"/><stop stop-color="#edc600" offset=".387"/><stop stop-color="#d8b104" offset=".745"/><stop stop-color="#dec436" offset="1"/></linearGradient><linearGradient id="j"><stop stop-color="#f6ba05" offset="0"/><stop stop-color="#e8de0b" offset=".5"/><stop stop-color="#d9c136" offset="1"/></linearGradient><linearGradient id="m"><stop stop-color="#d7a623" offset="0"/><stop stop-color="#984f1f" offset="1"/></linearGradient><linearGradient id="n"><stop stop-color="#ca8000" offset="0"/><stop stop-color="#8d4600" offset="1"/></linearGradient><linearGradient id="o"><stop stop-color="#b76700" offset="0"/><stop stop-color="#802300" offset="1"/></linearGradient><linearGradient id="p"><stop stop-color="#d8b617" offset="0"/><stop stop-color="#d08815" offset="1"/></linearGradient><linearGradient id="r"><stop stop-color="#daa800" offset="0"/><stop stop-color="#d67900" offset="1"/></linearGradient><linearGradient id="q"><stop stop-color="#da9a00" offset="0"/><stop stop-color="#c67000" offset="1"/></linearGradient><linearGradient id="u"><stop stop-color="#b2650a" offset="0"/><stop stop-color="#943d00" offset="1"/></linearGradient><linearGradient id="t"><stop stop-color="#dfba10" offset="0"/><stop stop-color="#d08815" offset="1"/></linearGradient><linearGradient id="s"><stop stop-color="#e4bc00" offset="0"/><stop stop-color="#ea8a00" offset="1"/></linearGradient></defs><circle fill="#21a4df" r="64" cy="64" cx="64"/><path d="M15.256 44v40h10.418v-4.186h-4.465V48.186h4.465V44H15.256zM32 44v40h10.418v-4.186h-4.465V48.186h4.465V44H32zm53.582 0v4.186h4.465v31.628h-4.465V84H96V44H85.582zm16.744 0v4.186h4.465v31.628h-4.465V84h10.418V44h-10.418zm-57.023 2.697l5.302 30.233h9.954l2.232-12c.465-2.326.79-4.836 1.115-7.069h.188c.279 2.233.65 4.743 1.115 7.069l2.326 12h10.139l5.023-30.233H75.07l-1.675 13.21c-.326 3.069-.696 6.278-1.022 9.488h-.187c-.559-3.21-1.116-6.465-1.674-9.489l-2.885-13.209H60.93l-2.883 13.21c-.558 3.116-1.116 6.325-1.674 9.488h-.187c-.326-3.163-.698-6.326-1.024-9.489l-1.674-13.209h-8.185z" style="line-height:1.25;-inkscape-font-specification:'Source Sans Pro Heavy'" font-weight="900" font-size="46.512" font-family="Source Sans Pro" letter-spacing="0" word-spacing="0" fill="#fff"/></svg>